# xmcd
#
# Track frame offsets:
#	150
#	15048
#	28283
#	46886
#	62575
#	77128
#	94103
#	109931
#	129754
#	146449
#	165681
#	182381
#	199365
#	216626
#	233820
#
# Disc length: 3290 seconds
#
# Revision: 0
# Processed by: cddbd v1.5.2PL0 Copyright (c) Steve Scherf et al.
# Submitted via: audiograbber 1.83.01
#
DISCID=c60cd80f
DTITLE=John Anderson - CB90092 Chartbuster (CB)
DYEAR=1900
DGENRE=Karaoke
TTITLE0=Swingin' (CB)
TTITLE1=Straight Tequila Night (CB)
TTITLE2=Seminole Wind (CB)
TTITLE3=Let Go Of The Stone (CB)
TTITLE4=Money In The Bank (CB)
TTITLE5=I Wish I Could Have Been There (CB)
TTITLE6=Bend Until It Breaks (CB)
TTITLE7=Mississippi Moon (CB)
TTITLE8=Somebody Slap Me (CB)
TTITLE9=Small Town (CB)
TTITLE10=Takin' The Country Back (CB)
TTITLE11=You Ain't Hurt Nothin' Yet (CB)
TTITLE12=Nobody's Got It All (CB)
TTITLE13=When It Comes To You (CB)
TTITLE14=I Fell In The Water (CB)
EXTD=
EXTT0=
EXTT1=
EXTT2=
EXTT3=
EXTT4=
EXTT5=
EXTT6=
EXTT7=
EXTT8=
EXTT9=
EXTT10=
EXTT11=
EXTT12=
EXTT13=
EXTT14=
PLAYORDER=
